{"accessors" : [{"bufferView" : 0, "byteOffset" : 0, "componentType" : 5123, "count" : 62520, "type" : "SCALAR", "max" : [12472], "min" : [0]}, {"bufferView" : 1, "byteOffset" : 0, "componentType" : 5126, "count" : 12473, "type" : "VEC3", "max" : [88.3466949462891, 159.360824584961, 13.0236854553223], "min" : [-88.3466873168945, -0.323115646839142, -12.4687547683716]}, {"bufferView" : 1, "byteOffset" : 12, "componentType" : 5126, "count" : 12473, "type" : "VEC3", "max" : [1.00000441074371, 1.00000441074371, 1.00000441074371], "min" : [-1.00000441074371, -1.00000441074371, -1.00000441074371]}, {"bufferView" : 1, "byteOffset" : 24, "componentType" : 5126, "count" : 12473, "type" : "VEC2", "max" : [1, 0], "min" : [0, -1]}, {"bufferView" : 0, "byteOffset" : 125040, "componentType" : 5123, "count" : 84816, "type" : "SCALAR", "max" : [15900], "min" : [0]}, {"bufferView" : 2, "byteOffset" : 0, "componentType" : 5126, "count" : 15901, "type" : "VEC3", "max" : [90.2566070556641, 180.604919433594, 17.6958160400391], "min" : [-90.2565994262695, -0.320193231105804, -14.3739423751831]}, {"bufferView" : 2, "byteOffset" : 12, "componentType" : 5126, "count" : 15901, "type" : "VEC3", "max" : [1.00000441074371, 0.999984920024872, 0.999992847442627], "min" : [-1.00000441074371, -0.999809980392456, -0.999995410442352]}, {"bufferView" : 2, "byteOffset" : 24, "componentType" : 5126, "count" : 15901, "type" : "VEC2", "max" : [1, 0], "min" : [0, -1]}], "asset" : {"generator" : "Aspose.3D 20.2.1", "version" : "2.0"}, "buffers" : [{"uri" : "buffer.bin", "byteLength" : 1202652}], "bufferViews" : [{"buffer" : 0, "byteOffset" : 0, "byteLength" : 294672, "target" : 34963}, {"buffer" : 0, "byteOffset" : 294676, "byteLength" : 399136, "byteStride" : 32, "target" : 34962}, {"buffer" : 0, "byteOffset" : 693816, "byteLength" : 508832, "byteStride" : 32, "target" : 34962}], "materials" : [{"pbrMetallicRoughness" : {"baseColorFactor" : [0.333333343267441, 0.124528877437115, 0.101014725863934, 1], "metallicFactor" : 0, "roughnessFactor" : 0}, "emissiveFactor" : [0, 0, 0], "alphaMode" : "OPAQUE", "doubleSided" : false}, {"pbrMetallicRoughness" : {"baseColorFactor" : [0.837000012397766, 0.302308022975922, 0.263655006885529, 1], "metallicFactor" : 0, "roughnessFactor" : 0}, "emissiveFactor" : [0, 0, 0], "alphaMode" : "OPAQUE", "doubleSided" : false}], "meshes" : [{"primitives" : [{"attributes" : {"POSITION" : 1, "NORMAL" : 2, "TEXCOORD_0" : 3}, "indices" : 0, "material" : 0, "mode" : 4}]}, {"primitives" : [{"attributes" : {"POSITION" : 5, "NORMAL" : 6, "TEXCOORD_0" : 7}, "indices" : 4, "material" : 1, "mode" : 4}]}], "nodes" : [{"mesh" : 0, "name" : "Beta_Joints"}, {"mesh" : 1, "name" : "Beta_Surface"}], "scene" : 0, "scenes" : [{"nodes" : [0, 1]}]}