{"accessors" : [{"bufferView" : 0, "byteOffset" : 0, "componentType" : 5123, "count" : 103440, "type" : "SCALAR", "max" : [22974], "min" : [0]}, {"bufferView" : 1, "byteOffset" : 0, "componentType" : 5126, "count" : 22975, "type" : "VEC3", "max" : [97.3423690795898, 180.343338012695, 20.6228542327881], "min" : [-97.3426132202148, -0.130155116319656, -15.8040904998779]}, {"bufferView" : 1, "byteOffset" : 12, "componentType" : 5126, "count" : 22975, "type" : "VEC3", "max" : [0.999996423721313, 0.999831914901733, 0.999974370002747], "min" : [-0.999996423721313, -0.999990165233612, -0.999960005283356]}, {"bufferView" : 1, "byteOffset" : 24, "componentType" : 5126, "count" : 22975, "type" : "VEC2", "max" : [0.996519386768341, -0.00310031417757273], "min" : [0.00357050402089953, -0.99890661239624]}, {"bufferView" : 0, "byteOffset" : 206880, "componentType" : 5123, "count" : 62520, "type" : "SCALAR", "max" : [12472], "min" : [0]}, {"bufferView" : 2, "byteOffset" : 0, "componentType" : 5126, "count" : 12473, "type" : "VEC3", "max" : [94.527229309082, 159.719268798828, 14.214861869812], "min" : [-94.527473449707, 0.648961842060089, -13.34547996521]}, {"bufferView" : 2, "byteOffset" : 12, "componentType" : 5126, "count" : 12473, "type" : "VEC3", "max" : [1.00000441074371, 1.00000441074371, 1.00000441074371], "min" : [-1.00000441074371, -1.00000441074371, -1.00000441074371]}, {"bufferView" : 2, "byteOffset" : 24, "componentType" : 5126, "count" : 12473, "type" : "VEC2", "max" : [1, 0], "min" : [0, -1]}], "asset" : {"generator" : "Aspose.3D 20.2.1", "version" : "2.0"}, "buffers" : [{"uri" : "buffer.bin", "byteLength" : 1466268}], "bufferViews" : [{"buffer" : 0, "byteOffset" : 0, "byteLength" : 331920, "target" : 34963}, {"buffer" : 0, "byteOffset" : 331924, "byteLength" : 735200, "byteStride" : 32, "target" : 34962}, {"buffer" : 0, "byteOffset" : 1067128, "byteLength" : 399136, "byteStride" : 32, "target" : 34962}], "materials" : [{"pbrMetallicRoughness" : {"baseColorFactor" : [0.0965700075030327, 0.421619802713394, 0.522000014781952, 1], "metallicFactor" : 0, "roughnessFactor" : 0}, "emissiveFactor" : [0, 0, 0], "alphaMode" : "OPAQUE", "doubleSided" : false}, {"pbrMetallicRoughness" : {"baseColorFactor" : [0.153551533818245, 0.21289387345314, 0.22221714258194, 1], "metallicFactor" : 0, "roughnessFactor" : 0}, "emissiveFactor" : [0, 0, 0], "alphaMode" : "OPAQUE", "doubleSided" : false}], "meshes" : [{"primitives" : [{"attributes" : {"POSITION" : 1, "NORMAL" : 2, "TEXCOORD_0" : 3}, "indices" : 0, "material" : 0, "mode" : 4}]}, {"primitives" : [{"attributes" : {"POSITION" : 5, "NORMAL" : 6, "TEXCOORD_0" : 7}, "indices" : 4, "material" : 1, "mode" : 4}]}], "nodes" : [{"mesh" : 0, "name" : "Alpha_Surface"}, {"mesh" : 1, "name" : "Alpha_Joints"}], "scene" : 0, "scenes" : [{"nodes" : [0, 1]}]}